<svg width="509" height="295" viewBox="0 0 509 295" fill="none" xmlns="http://www.w3.org/2000/svg">
<rect width="509" height="295" rx="40" fill="#1C3110"/>
<path d="M291.636 81.6364C291.227 78.1818 289.568 75.5 286.659 73.5909C283.75 71.6818 280.182 70.7273 275.955 70.7273C272.864 70.7273 270.159 71.2273 267.841 72.2273C265.545 73.2273 263.75 74.6023 262.455 76.3523C261.182 78.1023 260.545 80.0909 260.545 82.3182C260.545 84.1818 260.989 85.7841 261.875 87.125C262.784 88.4432 263.943 89.5455 265.352 90.4318C266.761 91.2955 268.239 92.0114 269.784 92.5795C271.33 93.125 272.75 93.5682 274.045 93.9091L281.136 95.8182C282.955 96.2955 284.977 96.9545 287.205 97.7955C289.455 98.6364 291.602 99.7841 293.648 101.239C295.716 102.67 297.42 104.511 298.761 106.761C300.102 109.011 300.773 111.773 300.773 115.045C300.773 118.818 299.784 122.227 297.807 125.273C295.852 128.318 292.989 130.739 289.216 132.534C285.466 134.33 280.909 135.227 275.545 135.227C270.545 135.227 266.216 134.42 262.557 132.807C258.92 131.193 256.057 128.943 253.966 126.057C251.898 123.17 250.727 119.818 250.455 116H259.182C259.409 118.636 260.295 120.818 261.841 122.545C263.409 124.25 265.386 125.523 267.773 126.364C270.182 127.182 272.773 127.591 275.545 127.591C278.773 127.591 281.67 127.068 284.239 126.023C286.807 124.955 288.841 123.477 290.341 121.591C291.841 119.682 292.591 117.455 292.591 114.909C292.591 112.591 291.943 110.705 290.648 109.25C289.352 107.795 287.648 106.614 285.534 105.705C283.42 104.795 281.136 104 278.682 103.318L270.091 100.864C264.636 99.2955 260.318 97.0568 257.136 94.1477C253.955 91.2386 252.364 87.4318 252.364 82.7273C252.364 78.8182 253.42 75.4091 255.534 72.5C257.67 69.5682 260.534 67.2955 264.125 65.6818C267.739 64.0455 271.773 63.2273 276.227 63.2273C280.727 63.2273 284.727 64.0341 288.227 65.6477C291.727 67.2386 294.5 69.4205 296.545 72.1932C298.614 74.9659 299.705 78.1136 299.818 81.6364H291.636ZM328.991 135.227C325.673 135.227 322.662 134.602 319.957 133.352C317.253 132.08 315.105 130.25 313.514 127.864C311.923 125.455 311.128 122.545 311.128 119.136C311.128 116.136 311.719 113.705 312.901 111.841C314.082 109.955 315.662 108.477 317.639 107.409C319.616 106.341 321.798 105.545 324.185 105.023C326.594 104.477 329.014 104.045 331.446 103.727C334.628 103.318 337.207 103.011 339.185 102.807C341.185 102.58 342.639 102.205 343.548 101.682C344.48 101.159 344.946 100.25 344.946 98.9545V98.6818C344.946 95.3182 344.026 92.7045 342.185 90.8409C340.366 88.9773 337.605 88.0455 333.901 88.0455C330.06 88.0455 327.048 88.8864 324.866 90.5682C322.685 92.25 321.151 94.0455 320.264 95.9545L312.628 93.2273C313.991 90.0455 315.81 87.5682 318.082 85.7955C320.378 84 322.878 82.75 325.582 82.0455C328.31 81.3182 330.991 80.9545 333.628 80.9545C335.31 80.9545 337.241 81.1591 339.423 81.5682C341.628 81.9545 343.753 82.7614 345.798 83.9886C347.866 85.2159 349.582 87.0682 350.946 89.5455C352.31 92.0227 352.991 95.3409 352.991 99.5V134H344.946V126.909H344.537C343.991 128.045 343.082 129.261 341.81 130.557C340.537 131.852 338.844 132.955 336.73 133.864C334.616 134.773 332.037 135.227 328.991 135.227ZM330.219 128C333.401 128 336.082 127.375 338.264 126.125C340.469 124.875 342.128 123.261 343.241 121.284C344.378 119.307 344.946 117.227 344.946 115.045V107.682C344.605 108.091 343.855 108.466 342.696 108.807C341.56 109.125 340.241 109.409 338.741 109.659C337.264 109.886 335.821 110.091 334.412 110.273C333.026 110.432 331.901 110.568 331.037 110.682C328.946 110.955 326.991 111.398 325.173 112.011C323.378 112.602 321.923 113.5 320.81 114.705C319.719 115.886 319.173 117.5 319.173 119.545C319.173 122.341 320.207 124.455 322.276 125.886C324.366 127.295 327.014 128 330.219 128ZM390.994 81.6364V88.4545H362.767V81.6364H390.994ZM371.222 134V74.4091C371.222 71.4091 371.926 68.9091 373.335 66.9091C374.744 64.9091 376.574 63.4091 378.824 62.4091C381.074 61.4091 383.449 60.9091 385.949 60.9091C387.926 60.9091 389.54 61.0682 390.79 61.3864C392.04 61.7045 392.972 62 393.585 62.2727L391.267 69.2273C390.858 69.0909 390.29 68.9205 389.562 68.7159C388.858 68.5114 387.926 68.4091 386.767 68.4091C384.108 68.4091 382.188 69.0795 381.006 70.4205C379.847 71.7614 379.267 73.7273 379.267 76.3182V134H371.222ZM422.068 135.091C417.023 135.091 412.67 133.977 409.011 131.75C405.375 129.5 402.568 126.364 400.591 122.341C398.636 118.295 397.659 113.591 397.659 108.227C397.659 102.864 398.636 98.1364 400.591 94.0455C402.568 89.9318 405.318 86.7273 408.841 84.4318C412.386 82.1136 416.523 80.9545 421.25 80.9545C423.977 80.9545 426.67 81.4091 429.33 82.3182C431.989 83.2273 434.409 84.7045 436.591 86.75C438.773 88.7727 440.511 91.4545 441.807 94.7955C443.102 98.1364 443.75 102.25 443.75 107.136V110.545H403.386V103.591H435.568C435.568 100.636 434.977 98 433.795 95.6818C432.636 93.3636 430.977 91.5341 428.818 90.1932C426.682 88.8523 424.159 88.1818 421.25 88.1818C418.045 88.1818 415.273 88.9773 412.932 90.5682C410.614 92.1364 408.83 94.1818 407.58 96.7045C406.33 99.2273 405.705 101.932 405.705 104.818V109.455C405.705 113.409 406.386 116.761 407.75 119.511C409.136 122.239 411.057 124.318 413.511 125.75C415.966 127.159 418.818 127.864 422.068 127.864C424.182 127.864 426.091 127.568 427.795 126.977C429.523 126.364 431.011 125.455 432.261 124.25C433.511 123.023 434.477 121.5 435.159 119.682L442.932 121.864C442.114 124.5 440.739 126.818 438.807 128.818C436.875 130.795 434.489 132.341 431.648 133.455C428.807 134.545 425.614 135.091 422.068 135.091Z" fill="#64B834"/>
<path d="M322.636 165.636C322.227 162.182 320.568 159.5 317.659 157.591C314.75 155.682 311.182 154.727 306.955 154.727C303.864 154.727 301.159 155.227 298.841 156.227C296.545 157.227 294.75 158.602 293.455 160.352C292.182 162.102 291.545 164.091 291.545 166.318C291.545 168.182 291.989 169.784 292.875 171.125C293.784 172.443 294.943 173.545 296.352 174.432C297.761 175.295 299.239 176.011 300.784 176.58C302.33 177.125 303.75 177.568 305.045 177.909L312.136 179.818C313.955 180.295 315.977 180.955 318.205 181.795C320.455 182.636 322.602 183.784 324.648 185.239C326.716 186.67 328.42 188.511 329.761 190.761C331.102 193.011 331.773 195.773 331.773 199.045C331.773 202.818 330.784 206.227 328.807 209.273C326.852 212.318 323.989 214.739 320.216 216.534C316.466 218.33 311.909 219.227 306.545 219.227C301.545 219.227 297.216 218.42 293.557 216.807C289.92 215.193 287.057 212.943 284.966 210.057C282.898 207.17 281.727 203.818 281.455 200H290.182C290.409 202.636 291.295 204.818 292.841 206.545C294.409 208.25 296.386 209.523 298.773 210.364C301.182 211.182 303.773 211.591 306.545 211.591C309.773 211.591 312.67 211.068 315.239 210.023C317.807 208.955 319.841 207.477 321.341 205.591C322.841 203.682 323.591 201.455 323.591 198.909C323.591 196.591 322.943 194.705 321.648 193.25C320.352 191.795 318.648 190.614 316.534 189.705C314.42 188.795 312.136 188 309.682 187.318L301.091 184.864C295.636 183.295 291.318 181.057 288.136 178.148C284.955 175.239 283.364 171.432 283.364 166.727C283.364 162.818 284.42 159.409 286.534 156.5C288.67 153.568 291.534 151.295 295.125 149.682C298.739 148.045 302.773 147.227 307.227 147.227C311.727 147.227 315.727 148.034 319.227 149.648C322.727 151.239 325.5 153.42 327.545 156.193C329.614 158.966 330.705 162.114 330.818 165.636H322.636ZM367.355 165.636V172.455H340.219V165.636H367.355ZM348.128 153.091H356.173V203C356.173 205.273 356.503 206.977 357.162 208.114C357.844 209.227 358.707 209.977 359.753 210.364C360.821 210.727 361.946 210.909 363.128 210.909C364.014 210.909 364.741 210.864 365.31 210.773C365.878 210.659 366.332 210.568 366.673 210.5L368.31 217.727C367.764 217.932 367.003 218.136 366.026 218.341C365.048 218.568 363.81 218.682 362.31 218.682C360.037 218.682 357.81 218.193 355.628 217.216C353.469 216.239 351.673 214.75 350.241 212.75C348.832 210.75 348.128 208.227 348.128 205.182V153.091ZM412.457 196.591V165.636H420.503V218H412.457V209.136H411.912C410.685 211.795 408.776 214.057 406.185 215.92C403.594 217.761 400.321 218.682 396.366 218.682C393.094 218.682 390.185 217.966 387.639 216.534C385.094 215.08 383.094 212.898 381.639 209.989C380.185 207.057 379.457 203.364 379.457 198.909V165.636H387.503V198.364C387.503 202.182 388.571 205.227 390.707 207.5C392.866 209.773 395.616 210.909 398.957 210.909C400.957 210.909 402.991 210.398 405.06 209.375C407.151 208.352 408.901 206.784 410.31 204.67C411.741 202.557 412.457 199.864 412.457 196.591ZM436.33 218V148.182H444.375V173.955H445.057C445.648 173.045 446.466 171.886 447.511 170.477C448.58 169.045 450.102 167.773 452.08 166.659C454.08 165.523 456.784 164.955 460.193 164.955C464.602 164.955 468.489 166.057 471.852 168.261C475.216 170.466 477.841 173.591 479.727 177.636C481.614 181.682 482.557 186.455 482.557 191.955C482.557 197.5 481.614 202.307 479.727 206.375C477.841 210.42 475.227 213.557 471.886 215.784C468.545 217.989 464.693 219.091 460.33 219.091C456.966 219.091 454.273 218.534 452.25 217.42C450.227 216.284 448.67 215 447.58 213.568C446.489 212.114 445.648 210.909 445.057 209.955H444.102V218H436.33ZM444.239 191.818C444.239 195.773 444.818 199.261 445.977 202.284C447.136 205.284 448.83 207.636 451.057 209.341C453.284 211.023 456.011 211.864 459.239 211.864C462.602 211.864 465.409 210.977 467.659 209.205C469.932 207.409 471.636 205 472.773 201.977C473.932 198.932 474.511 195.545 474.511 191.818C474.511 188.136 473.943 184.818 472.807 181.864C471.693 178.886 470 176.534 467.727 174.807C465.477 173.057 462.648 172.182 459.239 172.182C455.966 172.182 453.216 173.011 450.989 174.67C448.761 176.307 447.08 178.602 445.943 181.557C444.807 184.489 444.239 187.909 444.239 191.818Z" fill="#64B834"/>
<path fill-rule="evenodd" clip-rule="evenodd" d="M123 41C113.931 41 98.7777 44.6106 84.5177 48.63C69.9292 52.7175 55.2223 57.5544 46.5743 60.4837C42.9586 61.7216 39.7531 63.9917 37.3259 67.0333C34.8988 70.0749 33.3485 73.7646 32.8532 77.6785C25.0201 138.678 43.1966 183.885 65.2503 213.792C74.6025 226.586 85.7535 237.852 98.3309 247.214C103.404 250.934 108.109 253.782 112.105 255.73C115.785 257.529 119.741 259 123 259C126.259 259 130.202 257.529 133.895 255.73C138.712 253.303 143.32 250.454 147.669 247.214C160.247 237.852 171.398 226.586 180.75 213.792C202.803 183.885 220.98 138.678 213.147 77.6785C212.652 73.7627 211.103 70.0709 208.675 67.0269C206.248 63.983 203.042 61.7104 199.426 60.4701C186.872 56.203 174.22 52.2506 161.482 48.6164C147.222 44.6243 132.069 41 123 41ZM123 109.125C127.656 109.118 132.164 110.819 135.725 113.927C139.287 117.036 141.673 121.35 142.46 126.107C143.247 130.864 142.385 135.757 140.026 139.918C137.667 144.079 133.963 147.24 129.571 148.842L134.631 175.956C134.816 176.942 134.787 177.958 134.548 178.931C134.309 179.905 133.865 180.811 133.248 181.586C132.631 182.361 131.857 182.985 130.981 183.413C130.104 183.841 129.147 184.063 128.178 184.062H117.822C116.854 184.061 115.898 183.837 115.024 183.408C114.149 182.979 113.376 182.355 112.761 181.581C112.146 180.806 111.703 179.9 111.464 178.928C111.226 177.956 111.198 176.941 111.382 175.956L116.429 148.842C112.037 147.24 108.333 144.079 105.974 139.918C103.615 135.757 102.753 130.864 103.54 126.107C104.327 121.35 106.713 117.036 110.275 113.927C113.836 110.819 118.344 109.118 123 109.125Z" fill="#64B834"/>
</svg>
