<?xml version="1.0" encoding="utf-8"?>
<!-- Generator: Adobe Illustrator 27.0.1, SVG Export Plug-In . SVG Version: 6.00 Build 0)  -->
<svg version="1.1" id="Layer_1" xmlns="http://www.w3.org/2000/svg" xmlns:xlink="http://www.w3.org/1999/xlink" x="0px" y="0px"
	 viewBox="0 0 500 500" style="enable-background:new 0 0 500 500;" xml:space="preserve">
<style type="text/css">
	.st0{clip-path:url(#SVGID_00000114034300344778171780000017079418808287230377_);}
	.st1{fill:#FFFFFF;}
	.st2{fill:#E64100;}
	.st3{fill:#0B162A;}
</style>
<g>
	<defs>
		<rect id="SVGID_1_" x="20" y="22" width="460" height="456.1"/>
	</defs>
	<clipPath id="SVGID_00000183224969806402649570000009334352044996686747_">
		<use xlink:href="#SVGID_1_"  style="overflow:visible;"/>
	</clipPath>
	<g style="clip-path:url(#SVGID_00000183224969806402649570000009334352044996686747_);">
		<path class="st1" d="M469,125.7C469,125.7,468.9,125.8,469,125.7c-0.2,0.2-0.3,0.3-0.4,0.4C468.7,126,468.9,125.9,469,125.7
			L469,125.7z"/>
		<path class="st1" d="M479.2,90.5c0-1-0.1-2-0.5-2.9C468.7,59.4,441.3,62.9,425,65c-3.9,0.5-9.5,1.2-11.9,0.9
			c-5.4-6-11.3-11.5-17.4-16.4c0.3-2.5-0.6-5.1-2.6-7c-1.8-1.6-4.1-2.4-6.5-2.2c-1.1,0.1-4.3,0.2-7.3,0.2c-0.6-1.4-1.5-2.6-2.8-3.5
			c-2.6-2-5.6-2.2-7.6-2.3c-0.9-1.4-2.3-2.6-4-3.3c-14.9-6-31-9-47.9-9c-21.7,0.1-44.9,5.4-68.9,15.6c-12.4-1.8-23-5.1-33.2-8.2
			c-13.2-4.1-25.7-7.9-40.4-8.1c-11.7-0.1-23.7,2.2-36.5,7.2c-2.1,0.8-3.8,2.4-4.7,4.4c-2.8-0.6-5.1-1.1-6-1.4c0,0,0,0,0,0
			c-2.3-0.8-4.8-0.5-6.9,0.7c-1.4,0.9-2.5,2.1-3.2,3.6c-1.2,0.2-2.3,0.5-3.2,1c-2,1-3.4,2.8-4.1,4.9c0,0.1-0.1,0.2-0.1,0.3
			c-0.2,0.6-0.3,1.2-0.3,1.8c0,0.1,0,0.1,0,0.2c0,0,0,0,0,0.1c0,0,0,0,0-0.1c-3.7,0.9-6.5,2.5-8.8,4.1c-0.5-0.1-1.1-0.3-1.6-0.4
			c-0.4-0.1-0.7-0.2-1-0.2l-0.3-0.1c-0.7-0.1-1.2-0.3-1.9-0.4c-0.4-0.1-0.8-0.1-1.1-0.2l-0.3,0c-0.6-0.1-1.2-0.2-1.8-0.2
			c-0.4,0-0.9-0.1-1.2-0.1l-0.3,0c-0.6,0-1.2-0.1-1.8-0.1c-0.5,0-1,0-1.4,0h-0.2c-0.5,0-1.2,0-1.9,0c-0.6,0-1.1,0-1.6,0
			c-0.7,0-1.3,0.1-1.9,0.1c-0.5,0-1.1,0.1-1.7,0.1c-0.6,0.1-1.2,0.1-1.9,0.2c-0.6,0.1-1.2,0.1-1.7,0.2c-0.5,0.1-1.1,0.2-1.9,0.3
			c-0.7,0.1-1.2,0.2-1.7,0.3c-0.7,0.1-1.3,0.3-1.9,0.4c-0.5,0.1-1.1,0.3-1.7,0.4c-0.7,0.2-1.3,0.4-1.9,0.6c0,0-0.3,0.1-0.3,0.1
			c-0.5,0.1-1,0.3-1.5,0.5c-0.6,0.2-1.2,0.4-1.7,0.6l-0.2,0.1l-0.3,0.1c-0.4,0.2-0.9,0.3-1.4,0.5c-0.6,0.2-1.2,0.5-1.6,0.7l-0.3,0.1
			l-0.4,0.2c-0.4,0.2-0.8,0.4-1.3,0.6c-0.6,0.3-1.1,0.6-1.6,0.8l-0.4,0.2l-0.4,0.2c-0.3,0.2-0.7,0.4-1.2,0.6
			c-0.2,0.1-0.4,0.2-0.6,0.3c-0.2,0-0.4-0.1-0.6-0.1c-1.5,0-3,0.4-4.3,1.2c-1,0.6-1.9,1.2-3,2c-0.3,0.2-0.7,0.5-1.1,0.7
			c-0.7,0.5-1.4,1.1-2.1,1.6c-0.1,0.1-0.3,0.3-0.5,0.4c-0.9,0.3-1.9,0.7-2.8,1.2c-0.5,0.2-0.7,0.4-0.9,0.5c-0.1,0.1-0.2,0.1-0.4,0.2
			c-0.2,0.1-0.4,0.2-0.6,0.3c0,0-0.2,0.1-0.2,0.1l0,0c0,0-0.2,0.1-0.3,0.2c-0.3,0.2-0.5,0.3-0.6,0.4c-0.1,0-0.1,0.1-0.1,0.1
			c-0.1,0.1-0.2,0.1-0.4,0.2c-0.3,0.2-0.5,0.3-0.7,0.5c-0.1,0.1-0.4,0.3-0.4,0.3c-0.2,0.2-0.4,0.3-0.6,0.4c-0.2,0.2-0.4,0.3-0.5,0.4
			c-0.2,0.2-0.4,0.3-0.6,0.5s-0.3,0.2-0.4,0.4c-0.2,0.2-0.3,0.3-0.5,0.4c-0.1,0.1-0.5,0.5-0.5,0.5c-0.2,0.2-0.4,0.3-0.5,0.5
			c-0.1,0.1-0.3,0.3-0.5,0.4L31.3,69c-0.1,0.1-0.5,0.5-0.5,0.5c0,0-0.5,0.5-0.5,0.5c0,0-0.4,0.5-0.4,0.5c-0.2,0.2-0.3,0.3-0.5,0.5
			c-0.1,0.1-0.2,0.3-0.4,0.5c0,0-0.3,0.4-0.3,0.4c-0.3,0.3-0.4,0.5-0.5,0.7c-0.1,0.1-0.3,0.3-0.4,0.5c-0.2,0.2-0.3,0.4-0.4,0.6
			L27,74.4c-0.1,0.2-0.3,0.4-0.4,0.6c-0.1,0.2-0.3,0.4-0.4,0.6c0,0-0.4,0.6-0.4,0.6c0,0-0.3,0.5-0.3,0.5c-0.2,0.3-0.3,0.5-0.4,0.7
			c-0.1,0.2-0.2,0.3-0.3,0.6c-0.1,0.2-0.2,0.4-0.4,0.7l-0.3,0.5c-0.1,0.3-0.2,0.5-0.4,0.7c-0.1,0.2-0.2,0.4-0.3,0.6
			c-0.1,0.3-0.2,0.5-0.3,0.8c0,0.1-0.2,0.5-0.2,0.5c-0.1,0.3-0.2,0.6-0.3,0.8c0,0-0.2,0.5-0.2,0.5c-0.1,0.3-0.2,0.6-0.3,0.9
			c-0.1,0.2-0.1,0.4-0.2,0.5c-0.1,0.3-0.2,0.6-0.3,0.9c-0.1,0.2-0.1,0.3-0.1,0.5c-0.1,0.3-0.2,0.7-0.3,1c-0.1,0.2-0.1,0.3-0.1,0.5
			c-0.1,0.4-0.2,0.7-0.2,1c0,0.2-0.1,0.3-0.1,0.5c-0.1,0.4-0.1,0.8-0.2,1.1c0,0.1,0,0.2-0.1,0.4c-0.1,0.5-0.1,0.9-0.2,1.3
			c0,0,0,0.1,0,0.2c-0.2,2.1-0.3,4.2-0.2,6.3c0,0.1,0,0.3,0,0.4c0,0.4,0.1,0.8,0.1,1.3c0,0.1,0,0.3,0,0.4v0c0,0.3,0.1,0.8,0.2,1.2
			c0,0.2,0,0.3,0.1,0.4c0.1,0.4,0.1,0.8,0.2,1.2c0,0.2,0.1,0.3,0.1,0.4c0.1,0.4,0.2,0.8,0.3,1.2c0,0.2,0.1,0.3,0.1,0.4
			c0.1,0.4,0.2,0.8,0.3,1.2c0.1,0.2,0.1,0.3,0.1,0.5c0.1,0.5,0.3,0.8,0.4,1.1c0.1,0.2,0.1,0.4,0.2,0.6c0.1,0.4,0.3,0.7,0.4,1.1
			c0.1,0.2,0.1,0.3,0.2,0.5c0.2,0.4,0.3,0.8,0.5,1.1c0.1,0.2,0.2,0.4,0.3,0.5c0.2,0.3,0.3,0.7,0.5,1c0.1,0.2,0.2,0.4,0.3,0.5
			c0.3,0.5,0.4,0.8,0.6,1c0.1,0.2,0.3,0.5,0.4,0.6c0.2,0.3,0.4,0.6,0.6,0.9c0.1,0.2,0.3,0.4,0.4,0.6c0.2,0.3,0.4,0.6,0.6,0.9
			c0.1,0.2,0.3,0.4,0.5,0.6c0.2,0.3,0.5,0.6,0.7,0.9c0.2,0.2,0.3,0.4,0.5,0.6c0.2,0.3,0.5,0.6,0.7,0.9l0.5,0.6
			c0.2,0.3,0.5,0.5,0.8,0.8c0.2,0.2,0.4,0.4,0.6,0.6c0.3,0.3,0.6,0.6,0.8,0.8c0,0,0.6,0.6,0.6,0.6c0.3,0.2,0.5,0.5,0.9,0.8
			c0.1,0.1,0.6,0.6,0.6,0.6c0.3,0.3,0.6,0.6,0.9,0.8c0,0,0.7,0.6,0.7,0.6c0.3,0.3,0.6,0.5,1,0.8c0.2,0.2,0.5,0.4,0.7,0.5
			c0.3,0.3,0.7,0.5,1,0.7c0.1,0.1,0.8,0.5,0.8,0.5c0.4,0.3,0.7,0.5,1.1,0.7l0.2,0.1l0.6,0.4c0.4,0.2,0.7,0.4,1,0.6
			c0.1,0.1,0.3,0.2,0.3,0.2l0.6,0.4c0.4,0.2,0.8,0.5,1.2,0.7c0,0,0.2,0.1,0.2,0.1c0.2,0.1,0.4,0.2,0.6,0.4c0.4,0.2,0.7,0.4,1,0.6
			l0.2,0.1l0.3,0.1l0.6,0.3c0.5,0.2,0.9,0.5,1.4,0.7c0,0,0.3,0.1,0.3,0.1c0.2,0.1,0.4,0.2,0.6,0.3c0.5,0.2,1,0.5,1.5,0.7
			c0.1,0,0.3,0.1,0.3,0.1c0.1,0,0.2,0.1,0.2,0.1c-0.1,8.1-2.2,11.8-5.4,17.5c-2.8,4.9-6.2,11.1-8.7,21c-0.5,2.2-0.2,4.5,1,6.3
			c1.2,1.9,3,3.3,5.2,3.8c0.3,0.1,0.4,0.1,0.5,0.2c1.8,2,0.5,12.9-0.2,18.8c-1.6,13.3-3.5,29.6,5,41.2l0.7,7.7
			c-0.1,0.2-0.2,0.3-0.2,0.3c0,0-0.1,0.2-0.1,0.2c-0.2,0.4-0.4,0.8-0.5,1.1c-0.1,0.1-0.1,0.2-0.1,0.2c-0.2,0.5-0.4,0.8-0.5,1.1
			c0,0-0.1,0.3-0.1,0.3c-0.1,0.3-0.3,0.7-0.4,1c0,0-0.1,0.2-0.1,0.2l0,0.1c-0.2,0.4-0.3,0.7-0.4,1c0,0-0.1,0.2-0.1,0.2l0,0.1
			c-0.1,0.4-0.3,0.8-0.4,1.1c0,0-0.1,0.2-0.1,0.3l0,0.1c-0.1,0.3-0.2,0.7-0.3,1.1c0,0.1-0.1,0.2-0.1,0.3c-0.1,0.4-0.2,0.7-0.3,1
			c0,0.2-0.1,0.3-0.1,0.4c-0.1,0.4-0.1,0.8-0.2,1.1c0,0.1,0,0.3-0.1,0.4v0c0,0.3-0.1,0.7-0.1,1c0,0.2,0,0.3,0,0.4
			c0,0.3-0.1,0.7-0.1,1.1c0,0.1,0,0.3,0,0.4v0c0,0.3,0,0.6,0,1c0,0.1,0,0.3,0,0.4v0c0,0.3,0,0.7,0.1,1.1c0,0.2,0,0.3,0.1,0.4
			c0,0.3,0.1,0.7,0.2,1.1c0,0.2,0.1,0.3,0.1,0.4c0.1,0.3,0.1,0.7,0.2,1c0.1,0.3,0.1,0.4,0.1,0.5c0.1,0.3,0.2,0.6,0.3,1
			c0.1,0.3,0.1,0.4,0.2,0.5c0.1,0.3,0.2,0.6,0.4,1c0.1,0.2,0.2,0.4,0.2,0.5c0.1,0.2,0.2,0.6,0.4,0.9c0.1,0.2,0.2,0.4,0.2,0.5
			c0.1,0.3,0.3,0.6,0.5,0.9c0.1,0.2,0.2,0.3,0.2,0.4s0.1,0.1,0.1,0.1c0.1,0.2,0.3,0.5,0.5,0.8c0.1,0.2,0.2,0.3,0.3,0.4
			c0.1,0.1,0.1,0.1,0.1,0.1c0.1,0.2,0.3,0.4,0.5,0.7c0.1,0.2,0.3,0.3,0.3,0.4c0.1,0.1,0.2,0.2,0.2,0.2c0.1,0.2,0.3,0.4,0.5,0.6
			c0.1,0.2,0.3,0.3,0.4,0.4c0.1,0.1,0.2,0.2,0.2,0.2c0.1,0.2,0.3,0.4,0.5,0.6c0.2,0.2,0.3,0.3,0.4,0.5c0.1,0.1,0.2,0.2,0.2,0.2
			c0.1,0.1,0.3,0.3,0.5,0.5c0.2,0.2,0.4,0.4,0.5,0.5c0.1,0.1,0.2,0.2,0.2,0.2c0.1,0.1,0.3,0.3,0.5,0.5c0.2,0.2,0.5,0.4,0.6,0.6
			c0.1,0.1,0.2,0.2,0.2,0.2c0.1,0.1,0.3,0.2,0.4,0.4c0.3,0.2,0.5,0.4,0.7,0.6l0.1,0.1c0.2,0.2,0.4,0.3,0.5,0.4
			c0.3,0.2,0.6,0.5,0.8,0.7l0.2,0.1l0.1,0.1l0.3,0.2c0.4,0.3,0.9,0.7,1.4,1l0.2,0.1c0.1,0.1,0.2,0.1,0.3,0.2
			c3.6,22.1,10.4,39.1,20.3,50.7c1.6,1.9,3.9,2.9,6.3,2.9c0.8,0,1.6-0.1,2.3-0.3c3.5-1,6.6-1.6,9.2-1.6c3.9-0.1,6.5,0.7,7.8,2.5
			c1.4,2,1.3,5.1,0.7,6.5c-1.3,3.2-0.5,6.9,2.1,9.3c28.1,25.4,44.4,29.2,55.2,31.6c8.3,1.9,11.4,2.6,17.3,12.7
			c6.1,11.2,10,21.1,13.3,29.9c8.5,22.1,15.3,39.5,49.3,42.6c6.2,0.6,13.3,0.7,21.6,0.4c1.1,0,2.4-0.1,3.7-0.2
			c1.1-0.1,2.1-0.2,2.9-0.4c0.2,0,0.4,0,0.7-0.1c2.1-0.3,4.2-0.9,6.3-1.5c0.4-0.1,0.8-0.2,1.1-0.3c0.1,0,0.1,0,0.2,0c0,0,0,0,0,0
			c0,0,0,0,0,0c0,0,0,0,0,0c0.7-0.2,1.4-0.4,1.9-0.7c0.4-0.2,0.7-0.4,1-0.5l0.3-0.1c-0.2,0.1-0.3,0.1-0.5,0.2
			c0.8-0.4,1.7-0.7,2.5-1.1c-0.2,0.1-0.4,0.2-0.7,0.3c0.3-0.1,0.6-0.3,0.9-0.5c2.2-1.1,4.3-2.5,6.3-4c0.2-0.1,0.3-0.2,0.5-0.4
			c1.8-1.4,3.6-3.1,5.2-4.8c0.2-0.2,0.5-0.5,0.8-0.9c0.5-0.5,0.9-1,1.3-1.5c0.3-0.4,0.6-0.8,0.8-1.1c0,0,0.1-0.2,0.1-0.2
			c0.5-0.7,1-1.4,1.5-2.1c0.5-0.7,0.9-1.3,1.2-1.9c0.3-0.5,0.6-0.9,0.8-1.3c0.4-0.6,0.7-1.3,1.1-2l0.1-0.3c0.1-0.2,0.3-0.5,0.4-0.9
			c0.5-1,1-2.1,1.5-3.2c0.1-0.3,0.2-0.5,0.3-0.7l0.1-0.3c0.4-0.9,0.7-1.8,1.1-2.8c0,0,0.1-0.2,0.1-0.2l0.3-0.9
			c0.2-0.7,0.4-1.3,0.6-1.9c0.4-0.6,0.7-1.2,1-1.9l0.9-2.8c3.6-10.7,4.6-17.5,5-23.6c10.7-5.4,19.8-18.1,29.2-31.5
			c7-9.9,15.8-22.2,21.6-24.3c0.3-0.1,0.5-0.2,0.8-0.3c4.4-2.1,10-3.3,15.8-4.6c5.4-1.2,11.6-2.5,17.8-4.8c-0.3,0.1-0.6,0.2-0.9,0.3
			c1.3-0.3,2.4-0.8,3.5-1.4c0.1,0,0.1,0.1,0.2,0.1c0.4,0.2,0.8,0.3,1.2,0.4c0.1,0,0.1,0,0.2,0c0.3,0.1,0.7,0.1,1,0.2
			c0.1,0,0.3,0,0.4,0c0.2,0,0.3,0,0.5,0c0.1,0,0.2,0,0.3,0c0.3,0,0.7,0,1-0.1c0.2,0,0.3,0,0.5-0.1c0.4-0.1,0.9-0.2,1.3-0.4
			c0.1,0,0.1,0,0.2-0.1c0.4-0.2,0.9-0.4,1.3-0.7c0,0,0.1-0.1,0.1-0.1c0,0,0,0,0,0c0,0,0,0,0,0c0,0,0.1,0,0.1-0.1
			c5.4-3.5,8.4-8.2,10.2-12.5c0.6-0.3,1.1-0.6,1.6-1c0.6-0.4,1.2-0.9,1.8-1.5c0.1-0.1,0.2-0.2,0.4-0.4c0.7-0.8,1.3-1.6,1.9-2.4
			c0.1-0.1,0.2-0.4,0.3-0.5c0,0,0,0.1-0.1,0.1c0.2-0.4,0.5-0.9,0.7-1.3c1.3-0.7,2.4-1.6,3.3-2.9c0.9-1.3,1.7-2.6,2.6-4.1
			c0.1-0.1,0.1-0.1,0.2-0.2c2.6-2.6,7.5-7.5,8.9-16.9c0.1-0.4,0.1-0.8,0.2-1.2c0.1-0.9,0.2-2,0.3-3.2c1.8-4.7,3.9-8.5,5.9-12.1
			c2.3-4.1,4.4-8,6-12.6c0.2-0.8,0.5-1.4,0.6-2.1c0-0.1,0.1-0.3,0.1-0.4c0.2-0.7,0.3-1.3,0.4-1.8c0-0.2,0.1-0.4,0.1-0.5
			c0.1-0.7,0.2-1.2,0.3-1.7c0-0.3,0.1-0.5,0.1-0.7c0.1-0.7,0.2-1.2,0.2-1.7c0-0.3,0.1-0.5,0.1-0.8c0.1-0.7,0.1-1.2,0.1-1.7
			c0-0.3,0-0.7,0-1c0-0.5,0-1.1,0-1.6c0-0.4,0-0.7,0-1.1c0-0.5,0-1.1-0.1-1.6c0-0.4,0-0.8-0.1-1.2c0-0.5-0.1-1-0.1-1.6
			c0-0.4-0.1-0.8-0.1-1.3c-0.1-0.6-0.2-1.2-0.2-1.7c-0.1-0.4-0.1-0.9-0.2-1.3c-0.1-0.6-0.2-1.2-0.3-1.7c-0.1-0.5-0.2-0.9-0.3-1.4
			c-0.1-0.6-0.3-1.3-0.4-1.8l0-0.2l-0.3-1.2c-0.2-0.7-0.3-1.3-0.5-1.9c0,0-0.1-0.4-0.1-0.4l-0.3-1.1c-0.2-0.7-0.4-1.3-0.5-1.9
			c0-0.2-0.2-0.6-0.2-0.6l-0.3-1.1c0,0-0.1-0.2-0.1-0.4c1.8-1.5,2.8-3.8,2.8-6.1c0.7-41.6-3.2-68.9-12.9-88c0.3-0.1,0.6-0.2,0.9-0.3
			l0.4-0.2l0.4-0.2c0.3-0.1,0.6-0.2,1-0.4c1-0.4,1.9-0.9,2.8-1.3c0,0,0.1-0.1,0.2-0.1c0.2-0.1,0.5-0.2,0.8-0.4c1-0.5,2-1,2.8-1.5
			l0.1-0.1c0.2-0.1,0.4-0.2,0.6-0.3c1.1-0.6,2.1-1.2,2.8-1.7c-0.1,0,0,0,0,0c0.1-0.1,0.3-0.2,0.5-0.3c0.8-0.6,1.7-1.2,2.7-1.9
			c0,0,0.1-0.1,0.3-0.2c0.9-0.7,1.7-1.4,2.6-2.2c-0.1,0.1-0.1,0.1-0.2,0.2c0.1-0.1,0.3-0.2,0.4-0.4c0.8-0.7,1.6-1.5,2.4-2.4
			c-0.1,0.1-0.1,0.1-0.2,0.2c0.1-0.1,0.2-0.2,0.3-0.3c0.8-0.8,1.5-1.7,2.2-2.6c0-0.1,0.1-0.1,0.1-0.2c3.7-4.8,5.8-10.3,6.3-16.3
			c0.6-0.9,1.2-1.9,1.7-2.8c0-0.1,0.1-0.1,0.1-0.2C480.1,101,480.8,95.4,479.2,90.5L479.2,90.5z M279.8,475.6
			C279.8,475.6,279.8,475.6,279.8,475.6c0,0,0.2,0,0.3-0.1C280,475.6,279.9,475.6,279.8,475.6z M408.5,347.7c-0.1,0-0.3,0-0.4,0
			c0.2,0,0.5,0,0.7,0C408.6,347.7,408.6,347.7,408.5,347.7z M467.2,105.9c0.4,14.3-11.1,24.9-34.4,31.6c11.2,15.6,17.8,40.7,17,92.4
			l-6.3-2.4c17.5,45.9,0.9,45.6-7.5,72.7c0,0,0,0.1,0,0.1c-0.6,3.8-1.8,6-3.1,7.5c-2.1,4.4-4.3,8.2-6.6,11.5
			c-1.1,1.6-0.5-6.7-1.7-5.3c-1.1,1.3-0.3,9.7-4.8,12.2c-1.3,1.4-0.2-6.6-1.6-5.5c-1.1,0.9-0.3,12.6-9.7,18.6c4-8.1,2.3-8.7,0.8-7.8
			c-1.4,0.8-4.9,7.6-9.7,8.7c-12.2,4.5-24.5,4.9-34.3,9.7c-17.7,6.3-36.3,53.7-56,57.8c-0.3,8.3-0.7,14.9-5.8,29.4
			c-0.2,0.2-0.4,0.3-0.5,0.5c-6.1,20.9-18.6,31.5-37.3,31.9c-63.6,2.4-51.3-22.2-76.7-68.6c-16.8-28.7-24.8-1.7-74.1-46.4
			c3.2-7.9,0-26.6-27.7-18.5c-9.4-11-15.7-27.8-19-50.1c-17.4-11.7-17-18.9-9.7-32.4L56.7,241c-16-18,7.8-60.2-11.1-64.7
			c5.5-22,15.7-22.2,14.1-46.1C8.7,110.8,31.1,70.8,49.2,68c0,0,0,0,0,0c1.3-0.7,2.8-1.4,4.4-2c16-12.1,35.8-13,48.4-8.2
			c4.2-2.7,7.2-5.7,13.3-5.5c1.3-0.8,6.6-0.1,7.8-0.8c1.5-0.8-6.6-5.9-5.1-6.7c1.3-0.7,16.1,2.8,17.4,2.2c1.1-0.6-10.6-6.9-10.6-6.9
			c0,0.2,21,5,23,4.1c2-0.9-8.5-6.4-6.6-7.2c45.4-17.5,65.6,4.6,109.3,10l0.4-0.8c47-20.2,83.6-17.9,111-6.9c1.9,0.8-8,1.1-3.9,3.3
			c2.2,2.1,11.5-0.5,13.6,1.1c1.2,0.6-2.8,4-0.4,4.6c1.6,0.9,16.4,0.4,16.3,0.3c-0.6,1.4-8.8,3.5-7.2,4.6c1.6,1.1,7.4,0.5,8.9,1.7
			c7.5,5.7,13.9,12,19.1,18c10.2,6.8,51.1-15.1,62.7,17.5c0,0,0,0,0,0C473.9,95.1,471.4,100.9,467.2,105.9L467.2,105.9z"/>
		<path class="st1" d="M477.2,106.4c0-0.1,0.1-0.1,0.1-0.2C477.3,106.3,477.2,106.3,477.2,106.4
			C477.2,106.4,477.2,106.4,477.2,106.4L477.2,106.4z"/>
		<path class="st1" d="M457.4,273.3c0,0.1,0,0.1-0.1,0.2C457.3,273.5,457.3,273.4,457.4,273.3L457.4,273.3z"/>
		<path class="st1" d="M109.5,44.4c0-0.1,0-0.2,0-0.3C109.5,44.1,109.5,44.2,109.5,44.4c0,0.1,0,0.1,0,0.2
			C109.4,44.5,109.5,44.4,109.5,44.4z"/>
		<path class="st1" d="M477.2,106.5c0,0,0,0.1-0.1,0.1c0,0.1-0.1,0.2-0.1,0.2C477,106.7,477.1,106.6,477.2,106.5L477.2,106.5z"/>
		<path class="st1" d="M286.5,472.9c0,0-0.1,0-0.1,0.1c-0.1,0-0.2,0.1-0.3,0.1C286.2,473,286.3,472.9,286.5,472.9L286.5,472.9z"/>
		<path class="st2" d="M386.3,83.5c-4.7-9.1-11.5-12.7-20.4-10.7c0-29.6-71.9-33.1-88.8-21.4c13.3,3.5,26.7,4.7,40.3,3.7
			c-14.2,9.8-34.8,13.6-52.1,7.1c-9.7,14.9,4.6,33.9,31.2,17.5c6.1-1.9,39.3-15.1,61.7,14.1c-47.9-12.2-61.9,28.7-77.6,13.5
			c-4.2-5.8,1.9-28.1-31.8,6.3c4.8-29.6,2.8-46.1-1.5-60.7l0.3-0.6c-25.5-7.9-50.4-11.8-74.6-11.6l11.6,10.7
			c-10.9,1-19,1.9-30.4,2.2c-3.2,0.2-11.8-0.3-13.3,0c-1.9,0.3,4.1,2.7,2.2,3.1c-1.5,0.3-14.3-3.2-20.9-1c6.9,1.5,11.2,3.3,10.1,3.6
			c-6.4,1.8-9.3,3.3-14.7,6.3l2.4,14.6c-15.8-9.2-38-13.9-66.5-14.1c0,0,0.1-0.1,0.1-0.1c-1.6,0.6-3.1,1.3-4.4,2
			c-24.1,34.4-1.3,42.9,13.8,48.7C51.1,104.6,50.8,92.2,66,85c13.5-3.6,24.8,2.3,34.1,18c-26.2,22.7-26.3,51.5-22.4,98.2L56.7,241
			c0,0,0,0,0,0l1.6,12.4c0.9,6.1,5,8.2,12.2,6.3c-3.1,6.6-1.1,15.8,0,21.1c1.7-3.8,4.2-8.2,9.8-11.4c2.2,26.6,9.5,52.2,28.9,48.4
			c3.4,4.4,8.6,9.8,14.6,15.3c1.8,1.6,4.8,13.8,6.7,15.4c1.7,1.5,2.3-7.4,4.1-6c2,1.7,3.2,16.4,5.3,18c0.3,0.6,2.3-12.9,6.9-8.7
			c19.8,13.9,38.6,20.8,35.9-0.3c-107.1-45.2-79.7-148-79.7-148l-10.1,9.7c-1.7-16.5-2.2-31.4-1.6-44.5c0.1-2.8,4.6-10.6,4.9-13.2
			c3.2-6.4,5-12.1-5.7-2.1c-0.3-11.4,10.9-16.1,11.8-19.6c0.6-2.3-5.3-1.8-4.6-3.9c12.1-6.8,9.1-8.8,10.3-11.4
			c1.3-2.7-4.2-2.4-2.7-4.6c5.7-8.4,13-12.9,21.3-13.3c-9.3,13.5-20.1,40.1-16.4,64.5c37.1-9.1,13.8-44.6,42.1-63.3
			c13.2-6.6,21-8,48.5,6c-7.7,1.2-19.9,3-19.8,12.2c5,12.7,35.8-3.5,45.1,31.2c-10.1-5.4-14.4-7-22-2.9c18.6,6.1,30,11.7,21.8,32.6
			c-8.3-15.8-15.8-18.7-24.6-12.4c-1.3-4.6-3.1-7.9-5.3-10.5c-1.3,17.7-11.8,24.1-28.8,12.5c1.5,2.8,3.9,5.8,7,9.4
			c-5.8-2-9.8-4.5-11.8-7.6c-2,3.6-0.3,7.3,5,10.9c-9.1,17,4.3,18.2,13.8,11.5c11.9-15,19.4-19.3,27.1-18.3
			c-8.9,19.8-33.8,37.2-19.2,40.4c-8.5,10-8.6,14.4-0.2,13.2c-5.3,8.3-5.7,13.7,0.2,12.1c-5.1,30.4,1.3,40.1,11.9,47
			c-9.1,13.4-5.2,31.4,7.4,52.8v0c0.1-0.6,0.3-1.3,0.4-1.8c-1.4-26.8,0.5-28.4,6.8-44.5c4.6,2.7,6.8,14.1,12.9,16.4
			c2.4-8.3,4.8-13.5,7.1-15.5l7.1,6.3l5.8-2.5l4,1.8l3.9-2.6l6.8,2.3l6.6-4.9c1.7-1.1,3.1,3.7,4.3,14.4l8.6-11.1
			c4,6.9,5.1,23,3.2,48.2c8.8-11,14.7-21.6,16.6-32.1c2.8-9.6,0.7-18.2-6.3-25.5l13.6,7.3c0,0,0-0.1,0-0.1c7.6,1.9,13-0.7,14.8-8.1
			c21.8,31.3-12.7,67.7-20.8,91.2l4.6,8.2c22.6-23.6,35.5-42.3,38.7-56l8.2,8.1c3.1-3.9,5.2-10.5,6.3-19.9
			c37.7,15.6,41.2-24,64.1-26.1l7.2,11.7c0,0.1-0.1,0.1-0.1,0.2c1.4-1.5,2.6-3.7,3.1-7.5c0,0,0-0.1,0-0.1c0,0,0,0,0,0l-2.8-10.3
			c5.8-27.7,5.4-48.3-1.2-61.6c12-25.6,11-55.2-3.2-88.9c-27.3-7.1-37.2-22.1-29.6-45c14.2,15.4,61.6,4.3,67.9,11.5c0,0,0,0,0,0
			c4.2-5,6.8-10.8,3.7-15.5C450.4,92.8,439.8,70.4,386.3,83.5L386.3,83.5z M70.9,259.4c0.7-13.6-0.6-34.2,3.5-40.5
			C84.5,235.4,85.4,242.3,70.9,259.4z M209.3,115.3c16.9-15.5,24.6-34.4,22.9-56.9c7.2,8.7,8.5,22.5,3.9,41.5
			c-5.1,50.2,9.1,20.1,13.4,29.2c2.3,3.8-0.2,13.3-3.6,24.9l-15-5.9C228.7,135.2,221.5,124.3,209.3,115.3L209.3,115.3z M286.9,290.1
			c0,0-53.2-3.8-78.7,0l6.8-5.2l-11-3.1c-17.8-31.6,1.6-69,11.6-79.6c-1.4,7.2-4.3,13.7,6.6,15.1c11.8-3.8,17.6,1.1,17.4,14.8
			c-6.1-2.5-9.6-0.5-10.2,5.8l-13.2-7.7c-4.6,6.4-2.6,11.6,6.1,15.7c4.7,2.2,15.1-4.7,20.3,1.1l-3.9,9.3c6.9,0.5,24.5-7.4,21.3,9.2
			l9-18.7c14.2-5.2,20.6-13.4,19.2-24.5c14,16.4-3.8,26.1-6.9,35.1l8.2-4.3c8.3,8.4,5,18.7-10.1,31.1L286.9,290.1L286.9,290.1z
			 M259.4,222.1c5.3-9.2,10-10.6,15.4-3.5c3.3,5.8,3.2,11.2-0.3,16.3C271.2,238.3,255.8,234.7,259.4,222.1z M386.9,251.6
			c12.6-1.8,21.4-12.7,26.2-32.5l14.6,21.9c-6.9,4-10.9,15.3-11.9,34.1c-2.2,7.6-14.5,14.8-21.8,18.7c-2.1,1.1,10.8-11.2,2.1-18.3
			c-5.4,5.4-17.8,26.6-18.3,26.2c-4.3,1.7,2.8-12.3-1.7-10.4c-2.6,1.1-13.6,17.4-16.2,18.7c-2.5,1.3,2-10.2-0.4-8.7
			c-4.4,2.7-10,15.4-13.8,19.3c1.3-16.6-2.1-29.1-10.2-37.5c-6.9-2.6-11.3-2-23.1,0.6c2.1-14.1,1.5-28.1-1.7-42.1
			c20.9,44,68.8-28.4,63.2-42.1c-12.8,16.8-31,14.3-54.7-7.6c43.2-6.2,45.3-11.9,26.7-29.1c0.3,3.8-7.3,9.3-22.1,16.8
			c7.7-7.1,11.5-13.1,11.5-17.8c-1.3-10.6-16-19.5-28.6-7.8c1.8-1.6,4.3-2.4,7.3-2.1l2.8,5.9l7.5-3.9c11.4,6.7,2.8,26.5-14.6,17.4
			c-7.1-5-7.4-12.5-3.6-16.6c-3.1,3.1-6.1,7.5-8.6,13.4c-3.3-5.8-16.5-2.2-16.1,31.9c-8.7-24.9-14.5-51.5-30.5-35l18.2-47.7
			c5.1,8.5,5.8,12.2,24.5-1.2c9.9,17.2,28.1,2.6,33.2,24.9c-19-2.8-28.4,3.6-29.6,17.4c7.8-13.3,17-15.5,29.1-13.1
			c4.4-8.2,11.5-10.5,25.2,7.4c16.5,5.3,17.7-16.3-4.3-26.7c0-0.1,0.1-0.2,0.1-0.3c-9.8-4.9-16.3-5-23.6-4.1
			c7.4-14.6,18.7-16.3,33.9-5c6.6-1.6,12.8-1.1,6.7-8.1C434,128.6,400.9,226.7,386.9,251.6L386.9,251.6z"/>
		<path class="st2" d="M230.4,426.4l0.5,0.3c18.3,12.4,35.5,3.1,42.3-0.2c22,5,25.3-26.1,19.7-53.4c-4.9,16.5-11.1,35.8-17.7,38.8
			c5.3-32.8,4.7-63.4-2.1-84.6c-10.8-7.6-17.4,9-28.5,5.5c-4.6,0.8-10.1-14-17.3-10.4c-14.2,25.9-6.4,59.2,6.8,89.5
			c7,1.3,12.4,0.6,16.2-2.2l6.8,4l6.6-1.5l9.8,0.8l-12.1,6.8l-7.6-3.5c-6.4,5.4-7.7,5.2-15.6,0l-7.6,5.3l-1.5-6.6
			c-13.4-5.8-10.1-12.9-16.4-29.1c-0.1-0.5-0.2-1-0.3-1.5C206,411.5,211.2,431.2,230.4,426.4L230.4,426.4z"/>
		<path class="st2" d="M188.6,152.3c-1-0.6-2-1.1-3-1.6c-1.7-0.2-3.3-0.4-4.8-0.4l2.7,7.4L188.6,152.3L188.6,152.3z"/>
		<path class="st2" d="M168.3,232.4c-24.4-7.6-38.7-22.7-42.9-45.1c-5.8,11.5-7.5,21.2-6.1,29.6c0.2,1.3-1.3,11.3-0.9,12.6
			c0.5,1.7,2.8-5.3,3.6-3.7c0.5,1.2-3.6,12.3,1.2,16.3c1,1.6,2.7-9.6,3.9-8c1.2,1.6,4.1,12.2,5.6,13.7c1.4,1.4,1.4-6.3,3-5
			c1.3,1.1,1.7,19.9,9.3,24.9c1.2,0.9-1.7-17.8,3.6-16.2c14.3,13.1,4.7,49.7,29.5,54.5C168.9,277.4,164,245.3,168.3,232.4
			L168.3,232.4z"/>
		<path class="st2" d="M286.6,448.2c-23.6,10.5-53.8,8.9-61.6-1.8c0.3,10.3,7.8,20.1,37.3,17.3C280.4,461.6,288.5,456.5,286.6,448.2
			z"/>
		<path class="st3" d="M289.4,253l-8.2,4.3c3.1-9,20.8-18.7,6.9-35.1c1.4,11.1-5.1,19.2-19.2,24.5l-9,18.7
			c3.2-16.5-14.4-8.6-21.3-9.2l3.9-9.3c-5.2-5.8-15.6,1.1-20.3-1.1c-8.6-4.1-10.7-9.3-6.1-15.7l13.2,7.7c0.7-6.3,4.1-8.2,10.2-5.8
			c0.2-13.7-5.6-18.6-17.4-14.8c-10.9-1.3-7.9-7.8-6.6-15.1c-10,10.6-29.3,48-11.6,79.6l11,3.1l-6.8,5.2c25.4-3.8,78.7,0,78.7,0
			l-7.6-6C294.3,271.7,297.7,261.4,289.4,253L289.4,253z"/>
		<path class="st3" d="M246,154c3.3-11.6,5.9-21.1,3.6-24.9c-4.3-9.1-18.6,20.9-13.4-29.2c4.5-18.9,3.2-32.8-3.9-41.5
			c1.7,22.4-6,41.4-22.9,56.9c12.2,9,19.4,19.9,21.7,32.8L246,154L246,154z"/>
		<path class="st3" d="M363.8,108.5c6.1,7-0.1,6.5-6.7,8.1c-15.2-11.2-26.5-9.6-33.9,5c7.3-0.9,13.9-0.8,23.6,4.1
			c0,0.1-0.1,0.2-0.1,0.3c22,10.5,20.8,32,4.3,26.7c-13.6-17.9-20.8-15.6-25.2-7.4c-12.1-2.5-21.2-0.2-29.1,13.1
			c1.2-13.8,10.7-20.1,29.6-17.4c-5.1-22.3-23.3-7.7-33.2-24.9c-18.6,13.4-19.3,9.7-24.5,1.2l-18.2,47.7
			c16.1-16.5,21.8,10.1,30.5,35c-0.4-34,12.7-37.7,16.1-31.9c2.6-6,5.5-10.3,8.6-13.4c-3.7,4-3.5,11.5,3.6,16.6
			c17.4,9.1,26.1-10.7,14.6-17.4l-7.5,3.9l-2.8-5.9c-3-0.3-5.5,0.5-7.3,2.1c12.6-11.7,27.4-2.8,28.6,7.8c0.1,4.7-3.8,10.6-11.5,17.8
			c14.8-7.5,22.3-13,22.1-16.8c18.6,17.2,16.4,22.9-26.7,29.1c23.7,21.9,41.9,24.5,54.7,7.6c5.7,13.7-42.2,86-63.2,42.1
			c3.3,13.9,3.9,28,1.7,42.1c11.8-2.6,16.2-3.3,23.1-0.6c8.2,8.4,11.6,20.9,10.2,37.5c3.9-3.9,9.5-16.6,13.8-19.3
			c2.4-1.5-2.1,10,0.4,8.7c2.6-1.3,13.6-17.6,16.2-18.7c4.5-1.9-2.6,12.1,1.7,10.4c0.4,0.4,12.9-20.8,18.3-26.2
			c8.7,7.1-4.2,19.4-2.1,18.3c7.3-3.9,19.6-11.1,21.8-18.7c1-18.7,4.9-30.1,11.9-34.1l-14.6-21.9c-4.8,19.8-13.6,30.7-26.2,32.5
			C400.9,226.8,434,128.6,363.8,108.5L363.8,108.5z"/>
		<path class="st3" d="M274.6,234.9c3.5-5.1,3.5-10.5,0.3-16.3c-5.4-7.1-10.1-5.7-15.4,3.5C255.8,234.7,271.2,238.3,274.6,234.9z"/>
		<path class="st3" d="M399.2,94.4c-7.6,22.9,2.3,37.9,29.6,45c14.1,33.7,15.2,63.3,3.2,88.9c6.6,13.3,7,33.9,1.2,61.6l2.8,10.3
			c0,0,0,0,0,0c8.4-27.1,25-26.8,7.5-72.7l6.3,2.4c0.9-51.7-5.8-76.8-17-92.4c23.3-6.7,34.7-17.2,34.4-31.6c0,0,0,0,0,0
			C460.8,98.8,413.5,109.8,399.2,94.4L399.2,94.4z"/>
		<path class="st3" d="M119.9,80.2l-2.4-14.6c5.4-3,8.3-4.5,14.7-6.3c1.1-0.3-3.2-2.1-10.1-3.6c6.6-2.2,19.4,1.3,20.9,1
			c1.8-0.4-4.1-2.7-2.2-3.1c1.5-0.3,10.1,0.2,13.3,0c11.4-0.3,19.5-1.2,30.4-2.2l-11.6-10.7c24.2-0.2,49.1,3.6,74.6,11.6l-0.3,0.6
			c4.3,14.6,6.3,31.1,1.5,60.7c33.7-34.4,27.7-12.2,31.8-6.3c15.6,15.2,29.7-25.8,77.6-13.5c-22.4-29.2-55.6-16-61.7-14.1
			c-26.6,16.4-40.9-2.5-31.2-17.5c17.2,6.4,37.8,2.6,52.1-7.1c-13.6,1.1-27-0.2-40.3-3.7c17-11.6,88.8-8.2,88.8,21.4
			c8.9-2,15.7,1.5,20.4,10.7c53.5-13.1,64.2,9.3,84.6,6.8c0,0,0,0,0,0c-11.6-32.6-52.5-10.7-62.7-17.5c-5.2-6-11.6-12.2-19.1-18
			c-1.5-1.1-7.4-0.6-8.9-1.7c-1.6-1.1,6.6-3.2,7.2-4.6c0.1,0.1-14.7,0.6-16.3-0.3c-2.4-0.6,1.6-4,0.4-4.6c-2.2-1.7-11.5,1-13.6-1.1
			c-4.1-2.3,5.8-2.6,3.9-3.3c-27.4-11-64-13.3-111,6.9l-0.4,0.8c-43.7-5.4-64-27.5-109.3-10c-1.9,0.7,8.6,6.3,6.6,7.2
			c-2,0.9-23-3.9-23-4.1c0,0,11.7,6.3,10.6,6.9c-1.3,0.7-16-2.9-17.4-2.2c-1.4,0.8,6.6,5.9,5.1,6.7c-1.3,0.7-6.5,0-7.8,0.8
			c-6.1-0.2-9.1,2.8-13.3,5.5c-12.6-4.8-32.5-3.8-48.4,8.2c0,0-0.1,0.1-0.1,0.1C81.9,66.2,104.1,71,119.9,80.2L119.9,80.2z"/>
		<path class="st3" d="M77.7,201.3c-3.8-46.7-3.7-75.5,22.4-98.2C90.8,87.4,79.5,81.4,66,85c-15.2,7.2-14.9,19.6-3.1,31.7
			C47.9,110.9,25,102.4,49.1,68c0,0,0,0,0,0c-18.1,2.8-40.5,42.8,10.5,62.3c1.6,23.9-8.6,24.1-14.1,46.1c19,4.5-4.8,46.7,11.1,64.7
			c0,0,0,0,0,0L77.7,201.3z"/>
		<path class="st3" d="M425.7,295.8c-22.9,2.1-26.4,41.7-64.1,26.1c-1.1,9.4-3.2,16-6.3,19.9l-8.2-8.1c-3.2,13.7-16.1,32.3-38.7,56
			l-4.6-8.2c8.1-23.5,42.6-59.9,20.8-91.2c-1.8,7.5-7.2,10-14.8,8.1c0,0,0,0.1,0,0.1l-13.6-7.3c7,7.4,9.1,15.9,6.3,25.5
			c-1.9,10.6-7.8,21.1-16.6,32.1c1.9-25.3,0.8-41.4-3.2-48.2l-8.6,11.1c-1.1-10.7-2.6-15.5-4.3-14.4l-6.6,4.9l-6.8-2.3l-3.9,2.6
			l-4-1.8l-5.8,2.5l-7.1-6.3c-2.3,2-4.7,7.1-7.1,15.5c-6.1-2.3-8.3-13.7-12.9-16.4c-6.3,16.1-8.3,17.7-6.8,44.5
			c-0.2,0.6-0.3,1.2-0.5,1.8v0c-12.5-21.4-16.4-39.3-7.4-52.8c-10.5-6.9-17-16.6-11.8-47c-5.9,1.6-5.5-3.8-0.2-12.1
			c-8.4,1.2-8.3-3.2,0.2-13.2c-14.6-3.2,10.3-20.5,19.2-40.4c-7.7-1.1-15.2,3.2-27.1,18.3c-9.5,6.7-22.9,5.5-13.8-11.5
			c-5.3-3.7-7-7.3-5-10.9c2,3.1,6,5.6,11.8,7.6c-3.2-3.5-5.5-6.6-7-9.4c17,11.6,27.5,5.2,28.8-12.5c2.2,2.6,4,5.9,5.3,10.5
			c8.9-6.4,16.4-3.4,24.6,12.4c8.3-20.9-3.2-26.5-21.8-32.6c7.5-4.1,11.9-2.5,22,2.9c-9.3-34.7-40.1-18.5-45.1-31.2
			c-0.1-9.2,12.1-11,19.8-12.2c-27.5-14-35.3-12.6-48.5-6c-28.3,18.7-5,54.2-42.1,63.3c-3.8-24.4,7.1-51,16.4-64.5
			c-8.3,0.3-15.5,4.9-21.3,13.3c-1.5,2.2,4,1.8,2.7,4.6c-1.2,2.6,1.8,4.6-10.3,11.4c-0.7,2.1,5.2,1.6,4.6,3.9
			c-0.9,3.5-12.1,8.2-11.8,19.6c10.7-10,8.9-4.3,5.7,2.1c-0.2,2.6-4.7,10.4-4.9,13.2c-0.6,13.1-0.1,28,1.6,44.5l10.1-9.7
			c0,0-27.4,102.8,79.7,148c2.6,21.1-16.1,14.2-35.9,0.3c-4.5-4.2-6.6,9.3-6.9,8.7c-2.1-1.6-3.3-16.3-5.3-18c-1.8-1.5-2.4,7.5-4.1,6
			c-1.9-1.6-4.9-13.8-6.7-15.4c-6-5.6-11.1-11-14.6-15.3c-19.4,3.8-26.8-21.9-28.9-48.4c-5.7,3.2-8.2,7.6-9.8,11.4
			c-1.1-5.3-3.1-14.5,0-21.1c-7.2,1.9-11.3-0.2-12.2-6.3c-7.3,13.5-7.7,20.8,9.7,32.4c3.2,22.4,9.5,39.1,19,50.1
			c27.7-8.1,30.9,10.6,27.7,18.5c49.3,44.7,57.3,17.7,74.1,46.4c25.4,46.5,13.1,71.1,76.7,68.6c18.7-0.4,31.2-11.1,37.3-31.9
			c0.2-0.2,0.4-0.3,0.5-0.5c5.1-14.5,5.4-21.2,5.8-29.4c19.7-4.1,38.4-51.5,56-57.8c9.8-4.7,22.1-5.2,34.3-9.7
			c4.7-1.2,8.3-8,9.7-8.7c1.5-0.8,3.2-0.3-0.8,7.8c9.4-6,8.6-17.7,9.7-18.6c1.4-1.1,0.2,6.8,1.6,5.5c4.5-2.5,3.7-10.9,4.8-12.2
			c1.2-1.4,0.6,6.9,1.7,5.3c2.3-3.3,4.5-7.1,6.6-11.5c0-0.1,0.1-0.1,0.1-0.2L425.7,295.8L425.7,295.8z M185.6,150.7c1,0.5,2,1,3,1.6
			l-5.1,5.5l-2.7-7.4C182.3,150.4,183.9,150.5,185.6,150.7L185.6,150.7z M148.5,251.6c-5.2-1.7-2.4,17-3.6,16.2
			c-7.6-5-8-23.8-9.3-24.9c-1.6-1.4-1.6,6.4-3,5c-1.5-1.5-4.3-12.2-5.6-13.7c-1.2-1.5-3,9.6-3.9,8c-4.7-4-0.6-15.1-1.2-16.3
			c-0.7-1.6-3.1,5.4-3.6,3.7c-0.3-1.3,1.1-11.3,0.9-12.6c-1.3-8.4,0.4-18.2,6.1-29.6c4.3,22.4,18.6,37.4,42.9,45.1
			c-4.3,12.9,0.6,44.9,9.6,73.7C153.3,301.4,162.8,264.8,148.5,251.6L148.5,251.6z M212.4,384.3c0.1,0.5,0.2,1,0.3,1.5
			c6.3,16.2,3,23.3,16.4,29.1l1.5,6.6l7.6-5.3c7.9,5.2,9.3,5.4,15.6,0l7.6,3.5l12.1-6.8l-9.8-0.8l-6.6,1.5l-6.8-4
			c-3.8,2.8-9.2,3.5-16.2,2.2c-13.2-30.3-21-63.6-6.8-89.5c7.1-3.6,12.6,11.2,17.3,10.4c11.1,3.5,17.7-13.2,28.5-5.5
			c6.8,21.3,7.4,51.9,2.1,84.6c6.6-3,12.9-22.4,17.7-38.8c5.6,27.3,2.3,58.4-19.7,53.4c-6.8,3.3-24,12.7-42.3,0.2l-0.5-0.3
			C211.2,431.2,206,411.5,212.4,384.3L212.4,384.3z M225,446.4c7.8,10.6,38,12.3,61.6,1.8c1.9,8.3-6.2,13.5-24.4,15.5
			C232.8,466.5,225.3,456.7,225,446.4z"/>
		<path class="st3" d="M70.9,259.4c14.6-17.1,13.6-24,3.5-40.5C70.2,225.3,71.6,245.8,70.9,259.4z"/>
	</g>
</g>
</svg>
